<?xml version="1.0" encoding="UTF-8"?>
<svg id="_圖層_1" data-name="圖層 1" xmlns="http://www.w3.org/2000/svg" viewBox="0 0 600 600">
  <defs>
    <style>
      .cls-1 {
        fill: #fff;
      }

      .cls-1, .cls-2 {
        stroke-width: 0px;
      }

      .cls-2 {
        fill: #ff4448;
      }
    </style>
  </defs>
  <circle class="cls-2" cx="300" cy="300" r="300"/>
  <path class="cls-1" d="m287.66,419.87c16.23-17.61,31.14-34.1,44.54-49.28,21.96-24.88,39.32-48.77,51.6-71,13.12-23.74,19.77-47.64,19.77-71.02,0-20.63-4.29-39.13-12.75-54.99-8.7-16.32-21.38-29.18-37.68-38.24-15.94-8.85-35.13-13.33-57.03-13.33s-42.99,5.26-60.24,15.65c-15.98,9.62-30.82,22.06-44.11,36.96l-11.35,12.73,42.55,40.25,11.96-14.58c8.23-10.03,17.81-18.51,28.46-25.18,9.55-5.98,19.38-8.89,30.06-8.89,12.1,0,21.76,2.14,28.72,6.35,6.74,4.09,11.54,9.46,14.67,16.43,3.55,7.91,5.36,17.1,5.36,27.29,0,15.18-5.05,31.62-15,48.84-10.92,18.89-27.44,40.83-49.1,65.21-22.24,25.02-50.62,54.95-84.35,88.98l-5.09,5.14v40.82h230.95v-58.27h-121.7c-3.32,0-6.74.05-10.23.14Z"/>
</svg>