<?xml version="1.0" encoding="utf-8"?>
<!-- Generator: Adobe Illustrator 28.0.0, SVG Export Plug-In . SVG Version: 6.00 Build 0)  -->
<svg version="1.1" id="_圖層_1" xmlns="http://www.w3.org/2000/svg" xmlns:xlink="http://www.w3.org/1999/xlink" x="0px" y="0px"
	 viewBox="0 0 600 600" style="enable-background:new 0 0 600 600;" xml:space="preserve">
<style type="text/css">
	.st0{fill:#FF4448;}
	.st1{fill:#FF666E;}
	.st2{fill:#FFFFFF;}
</style>
<path class="st0" d="M300,600C134.3,600,0,465.7,0,300S134.3,0,300,0V600z"/>
<path class="st1" d="M300,0c165.7,0,300,134.3,300,300S465.7,600,300,600V0z"/>
<path class="st2" d="M287.7,419.9c16.2-17.6,31.1-34.1,44.5-49.3c22-24.9,39.3-48.8,51.6-71c13.1-23.7,19.8-47.6,19.8-71
	c0-20.6-4.3-39.1-12.8-55c-8.7-16.3-21.4-29.2-37.7-38.2c-15.9-8.8-35.1-13.3-57-13.3s-43,5.3-60.2,15.6c-16,9.6-30.8,22.1-44.1,37
	l-11.4,12.7l42.6,40.2l12-14.6c8.2-10,17.8-18.5,28.5-25.2c9.5-6,19.4-8.9,30.1-8.9c12.1,0,21.8,2.1,28.7,6.4
	c6.7,4.1,11.5,9.5,14.7,16.4c3.5,7.9,5.4,17.1,5.4,27.3c0,15.2-5,31.6-15,48.8c-10.9,18.9-27.4,40.8-49.1,65.2
	c-22.2,25-50.6,55-84.4,89l-5.1,5.1V478h230.9v-58.3H297.9C294.6,419.7,291.2,419.8,287.7,419.9L287.7,419.9z"/>
</svg>
