<?xml version="1.0" encoding="UTF-8"?>
<svg id="_圖層_1" data-name="圖層 1" xmlns="http://www.w3.org/2000/svg" viewBox="0 0 600 600">
  <defs>
    <style>
      .cls-1 {
        fill: #fff;
      }

      .cls-1, .cls-2 {
        stroke-width: 0px;
      }

      .cls-2 {
        fill: #ff4448;
      }
    </style>
  </defs>
  <circle class="cls-2" cx="300" cy="300" r="300"/>
  <path class="cls-1" d="m405.36,326.07c-7.54-13.14-17.83-24.15-30.6-32.73-1.84-1.23-3.71-2.42-5.61-3.54,5.82-4.37,11.18-9.28,16.03-14.71,13.89-15.53,20.93-35.58,20.93-59.59,0-19.38-4.8-36.32-14.27-50.35-9.32-13.79-22.12-24.46-38.04-31.72-15.27-6.95-32.46-10.47-51.11-10.47-20.82,0-39.55,4.44-55.67,13.19-14.9,8.08-28.58,17.98-40.65,29.42l-11.97,11.34,38.55,44.23,12.97-14.76c7.02-7.99,15.66-14.77,25.7-20.15,9.46-5.07,19.48-7.54,30.64-7.54,13.86,0,24.24,3.45,31.73,10.54,7.23,6.84,10.74,16.01,10.74,28.02,0,8.8-2.11,16.58-6.46,23.79-4.03,6.69-11.18,12.28-21.26,16.61-11.27,4.85-27.67,7.31-48.74,7.31h-17.19v55.73h17.19c23.05,0,41.53,2.56,54.9,7.6,11.98,4.53,20.62,10.54,25.68,17.85,5.13,7.44,7.63,16.15,7.63,26.61,0,9.86-2.13,18.06-6.52,25.06-4.46,7.12-10.39,12.52-18.12,16.49-7.94,4.08-17.6,6.15-28.72,6.15-17.03,0-30.86-3.18-41.13-9.46-11.77-7.19-21.92-15.15-30.16-23.65l-13.41-13.83-35.42,43.17,9.64,10.97c7.18,8.16,15.95,16.05,26.07,23.44,10.49,7.67,22.79,13.96,36.55,18.7,13.96,4.81,30.2,7.26,48.29,7.26,20.55,0,39.51-4.18,56.34-12.42,17.23-8.44,31.15-20.55,41.39-35.99,10.42-15.73,15.71-34.53,15.71-55.88,0-17.48-3.92-33.18-11.64-46.67Z"/>
</svg>