<?xml version="1.0" encoding="utf-8"?>
<!-- Generator: Adobe Illustrator 28.0.0, SVG Export Plug-In . SVG Version: 6.00 Build 0)  -->
<svg version="1.1" id="_圖層_1" xmlns="http://www.w3.org/2000/svg" xmlns:xlink="http://www.w3.org/1999/xlink" x="0px" y="0px"
	 viewBox="0 0 600 600" style="enable-background:new 0 0 600 600;" xml:space="preserve">
<style type="text/css">
	.st0{fill:#FF4448;}
	.st1{fill:#FF666E;}
	.st2{fill:#FFFFFF;}
</style>
<path class="st0" d="M300,600C134.3,600,0,465.7,0,300S134.3,0,300,0V600z"/>
<path class="st1" d="M300,0c165.7,0,300,134.3,300,300S465.7,600,300,600V0z"/>
<path class="st2" d="M405.4,326.1c-7.5-13.1-17.8-24.1-30.6-32.7c-1.8-1.2-3.7-2.4-5.6-3.5c5.8-4.4,11.2-9.3,16-14.7
	c13.9-15.5,20.9-35.6,20.9-59.6c0-19.4-4.8-36.3-14.3-50.4c-9.3-13.8-22.1-24.5-38-31.7c-15.3-6.9-32.5-10.5-51.1-10.5
	c-20.8,0-39.5,4.4-55.7,13.2c-14.9,8.1-28.6,18-40.7,29.4l-12,11.3l38.6,44.2l13-14.8c7-8,15.7-14.8,25.7-20.1
	c9.5-5.1,19.5-7.5,30.6-7.5c13.9,0,24.2,3.4,31.7,10.5c7.2,6.8,10.7,16,10.7,28c0,8.8-2.1,16.6-6.5,23.8c-4,6.7-11.2,12.3-21.3,16.6
	c-11.3,4.9-27.7,7.3-48.7,7.3h-17.2v55.7h17.2c23,0,41.5,2.6,54.9,7.6c12,4.5,20.6,10.5,25.7,17.9c5.1,7.4,7.6,16.1,7.6,26.6
	c0,9.9-2.1,18.1-6.5,25.1c-4.5,7.1-10.4,12.5-18.1,16.5c-7.9,4.1-17.6,6.1-28.7,6.1c-17,0-30.9-3.2-41.1-9.5
	c-11.8-7.2-21.9-15.1-30.2-23.6l-13.4-13.8L183,416.7l9.6,11c7.2,8.2,15.9,16,26.1,23.4c10.5,7.7,22.8,14,36.6,18.7
	c14,4.8,30.2,7.3,48.3,7.3c20.5,0,39.5-4.2,56.3-12.4c17.2-8.4,31.1-20.5,41.4-36c10.4-15.7,15.7-34.5,15.7-55.9
	C417,355.3,413.1,339.6,405.4,326.1L405.4,326.1z"/>
</svg>
