<svg width="101" height="151" viewBox="0 0 101 151" fill="none" xmlns="http://www.w3.org/2000/svg">
<path d="M1.6 150.8V133.8C15.0667 121.8 26.5333 110.667 36 100.4C45.6 90.1333 52.9333 80.6 58 71.8C63.0667 62.8667 65.6 54.6 65.6 47C65.6 42.2 64.7333 38 63 34.4C61.2667 30.8 58.7333 28.0667 55.4 26.2C52.2 24.2 48.2 23.2 43.4 23.2C38.0667 23.2 33.1333 24.7333 28.6 27.8C24.2 30.7333 20.1333 34.2667 16.4 38.4L0 22.6C6.93333 15.1333 14 9.53333 21.2 5.8C28.5333 1.93333 37.2 0 47.2 0C56.5333 0 64.6667 1.93333 71.6 5.8C78.6667 9.53333 84.1333 14.8 88 21.6C91.8667 28.4 93.8 36.4 93.8 45.6C93.8 54.5333 91.5333 63.6667 87 73C82.6 82.2 76.6667 91.4 69.2 100.6C61.7333 109.8 53.4667 118.867 44.4 127.8C48.2667 127.267 52.4 126.867 56.8 126.6C61.3333 126.2 65.3333 126 68.8 126H100.8V150.8H1.6Z" fill="#F0F0FF"/>
</svg>
