<svg width="102" height="154" viewBox="0 0 102 154" fill="none" xmlns="http://www.w3.org/2000/svg">
<path d="M49.4 153.6C41.6667 153.6 34.7333 152.667 28.6 150.8C22.4667 149.067 17 146.667 12.2 143.6C7.53333 140.4 3.46667 136.867 0 133L13.8 114.4C18.3333 118.533 23.2667 122.133 28.6 125.2C34.0667 128.133 40.1333 129.6 46.8 129.6C51.8667 129.6 56.2667 128.8 60 127.2C63.8667 125.6 66.8 123.267 68.8 120.2C70.9333 117.133 72 113.4 72 109C72 104.067 70.8 99.8667 68.4 96.4C66.1333 92.8 62.0667 90.0667 56.2 88.2C50.3333 86.3333 42.0667 85.4 31.4 85.4V64.2C40.4667 64.2 47.6 63.2667 52.8 61.4C58 59.4 61.6667 56.7333 63.8 53.4C66.0667 49.9333 67.2 46 67.2 41.6C67.2 35.8667 65.4667 31.4 62 28.2C58.5333 24.8667 53.6667 23.2 47.4 23.2C42.2 23.2 37.3333 24.4 32.8 26.8C28.4 29.0667 24 32.2 19.6 36.2L4.4 18C10.9333 12.5333 17.8 8.2 25 5C32.2 1.66667 40.1333 0 48.8 0C58.2667 0 66.6 1.53333 73.8 4.6C81.1333 7.66667 86.8 12.1333 90.8 18C94.8 23.8667 96.8 31 96.8 39.4C96.8 47.4 94.6667 54.2667 90.4 60C86.1333 65.7333 80.0667 70.1333 72.2 73.2V74.2C77.6667 75.6667 82.6 78.0667 87 81.4C91.5333 84.6 95.0667 88.6667 97.6 93.6C100.267 98.5333 101.6 104.267 101.6 110.8C101.6 119.733 99.2 127.4 94.4 133.8C89.7333 140.2 83.4 145.133 75.4 148.6C67.5333 151.933 58.8667 153.6 49.4 153.6Z" fill="#F0F0FF"/>
</svg>
