<svg width="220" height="220" viewBox="0 0 220 220" fill="none" xmlns="http://www.w3.org/2000/svg">
<path fill-rule="evenodd" clip-rule="evenodd" d="M126.458 16.4608C126.458 25.5519 119.09 32.9216 110 32.9216C100.91 32.9216 93.5416 25.5519 93.5416 16.4608C93.5416 7.36975 100.91 0 110 0C119.09 0 126.458 7.36975 126.458 16.4608ZM208.086 28.1138C208.086 37.2048 200.717 44.5746 191.627 44.5746C182.537 44.5746 175.169 37.2048 175.169 28.1138C175.169 19.0227 182.537 11.653 191.627 11.653C200.717 11.653 208.086 19.0227 208.086 28.1138ZM28.3108 121.438C25.333 124.412 21.2213 126.252 16.6801 126.252C7.59037 126.252 0.22168 118.882 0.22168 109.791C0.22168 105.242 2.06677 101.124 5.04931 98.1445L5.04281 98.1379L63.34 39.8196L63.3465 39.8261C66.3243 36.8514 70.436 35.0119 74.9773 35.0119C84.067 35.0119 91.4357 42.3816 91.4357 51.4727C91.4357 56.0219 89.5906 60.14 86.608 63.1194L86.6146 63.1261L28.3174 121.444L28.3108 121.438ZM168.289 74.7709C171.24 71.7959 173.063 67.6999 173.063 63.1781C173.063 54.0871 165.694 46.7173 156.605 46.7173C152.077 46.7173 147.976 48.5461 145 51.5054L144.967 51.4726L16.6801 179.762L16.6866 179.769C13.704 182.748 11.8589 186.867 11.8589 191.416C11.8589 200.507 19.2276 207.876 28.3174 207.876C32.8586 207.876 36.9703 206.037 39.9481 203.062L39.9546 203.069L168.297 74.7791L168.289 74.7709ZM203.264 126.252C212.354 126.252 219.723 118.882 219.723 109.791C219.723 100.7 212.354 93.3303 203.264 93.3303C194.175 93.3303 186.806 100.7 186.806 109.791C186.806 118.882 194.175 126.252 203.264 126.252ZM110 219.53C114.541 219.53 118.653 217.69 121.631 214.716L121.637 214.722L179.935 156.404L179.928 156.397C182.911 153.418 184.756 149.3 184.756 144.751C184.756 135.659 177.387 128.29 168.297 128.29C163.756 128.29 159.644 130.129 156.666 133.104L156.66 133.097L98.3073 191.416L98.3415 191.45C95.3752 194.427 93.5416 198.534 93.5416 203.069C93.5416 212.16 100.91 219.53 110 219.53Z" fill="#FF4448"/>
</svg>
