<?xml version="1.0" encoding="utf-8"?>
<!-- Generator: Adobe Illustrator 28.0.0, SVG Export Plug-In . SVG Version: 6.00 Build 0)  -->
<svg version="1.1" id="圖層_1" xmlns="http://www.w3.org/2000/svg" xmlns:xlink="http://www.w3.org/1999/xlink" x="0px" y="0px"
	 viewBox="0 0 220 220" style="enable-background:new 0 0 220 220;" xml:space="preserve">
<style type="text/css">
	.st0{opacity:0.2;fill-rule:evenodd;clip-rule:evenodd;fill:#FF4448;}
</style>
<path class="st0" d="M126.5,16.5c0,9.1-7.4,16.5-16.5,16.5s-16.5-7.4-16.5-16.5S100.9,0,110,0S126.5,7.4,126.5,16.5z M208.1,28.1
	c0,9.1-7.4,16.5-16.5,16.5s-16.5-7.4-16.5-16.5s7.4-16.5,16.5-16.5S208.1,19,208.1,28.1z M28.3,121.4c-3,3-7.1,4.8-11.6,4.8
	c-9.1,0-16.5-7.4-16.5-16.5c0-4.5,1.8-8.7,4.8-11.6l0,0l58.3-58.3l0,0c3-3,7.1-4.8,11.6-4.8c9.1,0,16.5,7.4,16.5,16.5
	c0,4.5-1.8,8.7-4.8,11.6l0,0L28.3,121.4L28.3,121.4z M168.3,74.8c3-3,4.8-7.1,4.8-11.6c0-9.1-7.4-16.5-16.5-16.5
	c-4.5,0-8.6,1.8-11.6,4.8l0,0L16.7,179.8l0,0c-3,3-4.8,7.1-4.8,11.6c0,9.1,7.4,16.5,16.5,16.5c4.5,0,8.7-1.8,11.6-4.8l0,0
	L168.3,74.8L168.3,74.8z M203.3,126.3c9.1,0,16.5-7.4,16.5-16.5s-7.4-16.5-16.5-16.5s-16.5,7.4-16.5,16.5S194.2,126.3,203.3,126.3z
	 M110,219.5c4.5,0,8.7-1.8,11.6-4.8l0,0l58.3-58.3l0,0c3-3,4.8-7.1,4.8-11.6c0-9.1-7.4-16.5-16.5-16.5c-4.5,0-8.7,1.8-11.6,4.8l0,0
	l-58.4,58.3l0,0c-3,3-4.8,7.1-4.8,11.6C93.5,212.2,100.9,219.5,110,219.5z"/>
</svg>
