<?xml version="1.0" encoding="utf-8"?>
<!-- Generator: Adobe Illustrator 28.0.0, SVG Export Plug-In . SVG Version: 6.00 Build 0)  -->
<svg version="1.1" id="圖層_1" xmlns="http://www.w3.org/2000/svg" xmlns:xlink="http://www.w3.org/1999/xlink" x="0px" y="0px"
	 viewBox="0 0 510.4 727.1" style="enable-background:new 0 0 510.4 727.1;" xml:space="preserve">
<style type="text/css">
	.st0{fill:#FAFAFC;}
	.st1{fill:#DFDFF4;}
	.st2{fill:#C8C8E8;}
	.st3{fill:#E9E9F8;}
</style>
<g>
	<path class="st0" d="M450.6,184.6c0.1-3.8,0.2-6.6,0.2-8.4c0-11.1-1.6-20.6-4.7-28.6c-2.3-6.1-6-12.1-11.1-18.3
		c-3.8-4.5-10.5-11-20.3-19.6s-16.1-15.5-19-20.6c-2.9-5.1-4.4-10.7-4.4-16.7c0-10.9,4.3-20.6,12.8-28.9c8.6-8.3,19-12.4,31.4-12.4
		c12,0,22,3.8,30,11.3s13.3,19.2,15.8,35.2l28.9-3.4c-2.6-21.4-10.4-37.8-23.2-49.1c-12.9-11.4-29.9-17-51.1-17
		c-22.4,0-40.3,6.1-53.7,18.3s-20,27-20,44.3c0,10,2.4,19.2,7,27.7c4.7,8.4,13.9,18.7,27.5,30.8c9.2,8.1,15.2,14.1,18,18
		s4.9,8.3,6.3,13.3c1.4,5,2.1,13.1,2.4,24.4H450.6z M452.4,241.1V209h-32.1v32.1H452.4z"/>
</g>
<g>
	<path class="st1" d="M401.7,613.2c0.2-6,0.2-10.6,0.2-13.6c0-17.8-2.5-33.1-7.5-46c-3.7-9.7-9.6-19.5-17.9-29.4
		c-6-7.2-16.9-17.7-32.6-31.5c-15.7-13.8-25.9-24.8-30.5-33.1c-4.7-8.2-7-17.2-7-26.9c0-17.6,6.9-33.1,20.6-46.4
		c13.7-13.3,30.6-20,50.5-20c19.3,0,35.4,6,48.3,18.1s21.4,30.9,25.4,56.6l46.5-5.5c-4.2-34.4-16.6-60.7-37.3-78.9
		c-20.7-18.3-48.1-27.4-82.1-27.4c-36,0-64.8,9.8-86.2,29.4c-21.5,19.6-32.2,43.3-32.2,71.1c0,16.1,3.8,30.9,11.3,44.5
		c7.5,13.6,22.3,30.1,44.2,49.5c14.8,13.1,24.4,22.7,28.9,28.9c4.5,6.2,7.9,13.3,10.1,21.4c2.2,8,3.4,21.1,3.8,39.2L401.7,613.2
		L401.7,613.2z M404.5,703.9v-51.5h-51.5v51.5H404.5z"/>
</g>
<g>
	<path class="st2" d="M189.5,290.2c0.1-4.2,0.2-7.4,0.2-9.5c0-12.4-1.8-23.1-5.3-32.2c-2.6-6.8-6.7-13.6-12.5-20.6
		c-4.2-5-11.8-12.4-22.8-22.1c-11-9.7-18.1-17.4-21.3-23.1c-3.3-5.7-4.9-12-4.9-18.8c0-12.3,4.8-23.1,14.4-32.4
		c9.6-9.3,21.4-14,35.3-14c13.5,0,24.7,4.2,33.8,12.6c9,8.4,14.9,21.6,17.8,39.5l32.5-3.9c-2.9-24-11.6-42.4-26.1-55.2
		C216.1,98,197,91.6,173.2,91.6c-25.2,0-45.3,6.9-60.3,20.6c-15,13.7-22.5,30.3-22.5,49.7c0,11.2,2.6,21.6,7.9,31.1
		s15.6,21,30.9,34.6c10.3,9.1,17,15.9,20.2,20.2c3.2,4.3,5.5,9.3,7,14.9c1.5,5.6,2.4,14.8,2.6,27.4L189.5,290.2L189.5,290.2z
		 M191.5,353.6v-36h-36v36H191.5z"/>
</g>
<g>
	<path class="st3" d="M75.4,604.5c0.1-2.7,0.1-4.7,0.1-6.1c0-8-1.1-14.8-3.4-20.6c-1.6-4.3-4.3-8.7-8-13.2
		c-2.7-3.2-7.6-7.9-14.6-14.1S38,539.4,35.9,535.7c-2.1-3.7-3.2-7.7-3.2-12c0-7.9,3.1-14.8,9.2-20.8s13.7-9,22.6-9
		c8.6,0,15.8,2.7,21.6,8.1c5.8,5.4,9.6,13.8,11.4,25.3l20.8-2.5c-1.9-15.4-7.5-27.2-16.7-35.3c-9.3-8.2-21.5-12.3-36.7-12.3
		c-16.1,0-29,4.4-38.6,13.2c-9.6,8.8-14.4,19.4-14.4,31.8c0,7.2,1.7,13.8,5.1,19.9c3.4,6.1,10,13.5,19.8,22.2
		c6.6,5.8,10.9,10.2,12.9,12.9c2,2.8,3.5,6,4.5,9.6c1,3.6,1.5,9.5,1.7,17.6L75.4,604.5L75.4,604.5z M76.6,645.1V622H53.5v23.1H76.6z
		"/>
</g>
</svg>
