<?xml version="1.0" encoding="utf-8"?>
<!-- Generator: Adobe Illustrator 28.0.0, SVG Export Plug-In . SVG Version: 6.00 Build 0)  -->
<svg version="1.1" id="圖層_1" xmlns="http://www.w3.org/2000/svg" xmlns:xlink="http://www.w3.org/1999/xlink" x="0px" y="0px"
	 viewBox="0 0 1024 768" style="enable-background:new 0 0 1024 768;" xml:space="preserve">
<style type="text/css">
	.st0{fill:#FAFAFC;}
	.st1{fill:#DFDFF4;}
	.st2{fill:#C8C8E8;}
	.st3{fill:#E9E9F8;}
</style>
<g>
	<path class="st0" d="M113.66,225.5c-0.1-3.75-0.16-6.57-0.16-8.45c0-11.05,1.56-20.6,4.69-28.63c2.29-6.05,6-12.15,11.11-18.3
		c3.75-4.48,10.51-11.03,20.26-19.63c9.75-8.6,16.09-15.46,19.01-20.57c2.92-5.11,4.38-10.69,4.38-16.74
		c0-10.95-4.28-20.57-12.83-28.86c-8.55-8.29-19.03-12.44-31.44-12.44c-11.99,0-22.01,3.75-30.04,11.26
		c-8.03,7.51-13.3,19.24-15.8,35.2L53.9,114.9c2.61-21.38,10.35-37.75,23.23-49.12c12.88-11.37,29.9-17.05,51.08-17.05
		c22.42,0,40.31,6.1,53.66,18.3c13.35,12.2,20.02,26.96,20.02,44.27c0,10.01-2.35,19.24-7.04,27.69s-13.87,18.72-27.53,30.82
		c-9.18,8.13-15.17,14.13-17.99,17.99c-2.82,3.86-4.9,8.29-6.26,13.3c-1.36,5.01-2.14,13.14-2.35,24.4H113.66z M111.94,281.97V249.9
		H144v32.07H111.94z"/>
</g>
<g>
	<path class="st1" d="M162.57,654.07c-0.17-6.03-0.25-10.56-0.25-13.58c0-17.76,2.51-33.1,7.54-46c3.68-9.72,9.64-19.52,17.85-29.41
		c6.03-7.2,16.88-17.72,32.56-31.55c15.67-13.83,25.85-24.84,30.54-33.06c4.69-8.21,7.04-17.18,7.04-26.9
		c0-17.6-6.87-33.06-20.61-46.38c-13.74-13.32-30.59-19.99-50.53-19.99c-19.27,0-35.36,6.03-48.27,18.1
		c-12.91,12.07-21.37,30.92-25.39,56.56l-46.51-5.53c4.19-34.35,16.63-60.67,37.33-78.94c20.7-18.27,48.06-27.4,82.08-27.4
		c36.03,0,64.77,9.8,86.23,29.41c21.45,19.61,32.18,43.33,32.18,71.14c0,16.09-3.77,30.92-11.31,44.5
		c-7.54,13.58-22.29,30.08-44.25,49.52c-14.75,13.07-24.39,22.71-28.91,28.91c-4.53,6.2-7.88,13.32-10.06,21.37
		c-2.18,8.04-3.44,21.12-3.77,39.22H162.57z M159.81,744.82v-51.54h51.54v51.54H159.81z"/>
</g>
<g>
	<path class="st2" d="M374.77,331.08c-0.12-4.22-0.18-7.38-0.18-9.49c0-12.42,1.76-23.14,5.27-32.16
		c2.58-6.79,6.74-13.65,12.48-20.56c4.22-5.04,11.8-12.39,22.76-22.06c10.95-9.67,18.07-17.37,21.35-23.11
		c3.28-5.74,4.92-12.01,4.92-18.81c0-12.3-4.81-23.11-14.41-32.43c-9.61-9.32-21.38-13.97-35.33-13.97
		c-13.48,0-24.72,4.22-33.75,12.65c-9.02,8.44-14.94,21.62-17.75,39.54l-32.51-3.87c2.93-24.02,11.63-42.41,26.1-55.19
		c14.47-12.77,33.6-19.16,57.38-19.16c25.19,0,45.28,6.85,60.28,20.56c15,13.71,22.5,30.29,22.5,49.74
		c0,11.25-2.64,21.62-7.91,31.11s-15.58,21.03-30.93,34.62c-10.31,9.14-17.05,15.88-20.21,20.21c-3.16,4.34-5.51,9.31-7.03,14.94
		c-1.52,5.62-2.4,14.76-2.64,27.42H374.77z M372.84,394.52v-36.03h36.03v36.03H372.84z"/>
</g>
<g>
	<path class="st3" d="M488.94,645.37c-0.08-2.7-0.11-4.73-0.11-6.08c0-7.95,1.12-14.82,3.38-20.59c1.65-4.35,4.31-8.74,7.99-13.17
		c2.7-3.23,7.56-7.93,14.57-14.12c7.01-6.19,11.57-11.12,13.67-14.8c2.1-3.67,3.15-7.69,3.15-12.04c0-7.88-3.08-14.8-9.23-20.76
		s-13.69-8.95-22.62-8.95c-8.63,0-15.83,2.7-21.61,8.1c-5.78,5.4-9.57,13.84-11.37,25.32l-20.82-2.48
		c1.87-15.38,7.45-27.16,16.71-35.34c9.27-8.18,21.51-12.27,36.74-12.27c16.13,0,29,4.39,38.6,13.17c9.6,8.78,14.4,19.4,14.4,31.85
		c0,7.2-1.69,13.84-5.06,19.92c-3.38,6.08-9.98,13.47-19.81,22.17c-6.6,5.85-10.92,10.17-12.94,12.94c-2.03,2.78-3.53,5.96-4.5,9.57
		c-0.98,3.6-1.54,9.45-1.69,17.56H488.94z M487.7,685.99v-23.07h23.07v23.07H487.7z"/>
</g>
</svg>
